HIERARCHY
ROOT Pelvis
{
	OFFSET 0.000000 0.941512 0.000000
	CHANNELS 6 Xposition Yposition Zposition Zrotation Yrotation Xrotation 
	JOINT Pelvis_L_Hip
	{
		OFFSET 0.000000 0.000000 0.000000
		CHANNELS 3 Zrotation Yrotation Xrotation
		JOINT L_Hip
		{
			OFFSET 0.062321 -0.080322 -0.016990
			CHANNELS 3 Zrotation Yrotation Xrotation
			JOINT L_Knee
			{
				OFFSET 0.093051 -0.381305 -0.029784
				CHANNELS 3 Zrotation Yrotation Xrotation
				JOINT L_Ankle
				{
					OFFSET -0.010371 -0.431000 -0.033614
					CHANNELS 3 Zrotation Yrotation Xrotation
					End Site #name: L_Foot
					{
						OFFSET 0.069299 -0.038670 0.119418
					}
				}
			}
		}
	}
	JOINT Pelvis_R_Hip
	{
		OFFSET 0.000000 0.000000 0.000000
		CHANNELS 3 Zrotation Yrotation Xrotation
		JOINT R_Hip
		{
			OFFSET -0.055334 -0.094904 -0.002373
			CHANNELS 3 Zrotation Yrotation Xrotation
			JOINT R_Knee
			{
				OFFSET -0.064207 -0.384370 -0.019592
				CHANNELS 3 Zrotation Yrotation Xrotation
				JOINT R_Ankle
				{
					OFFSET 0.025418 -0.419734 -0.065953
					CHANNELS 3 Zrotation Yrotation Xrotation
					End Site #name: R_Foot
					{
						OFFSET -0.057233 -0.039888 0.132134
					}
				}
			}
		}
	}
	JOINT Pelvis_Spine1
	{
		OFFSET 0.000000 0.000000 0.000000
		CHANNELS 3 Zrotation Yrotation Xrotation
		JOINT Spine1
		{
			OFFSET -0.005562 0.124093 -0.043360
			CHANNELS 3 Zrotation Yrotation Xrotation
			JOINT Spine2
			{
				OFFSET 0.012244 0.139499 0.029894
				CHANNELS 3 Zrotation Yrotation Xrotation
				JOINT Spine3
				{
					OFFSET -0.002556 0.056561 0.009225
					CHANNELS 3 Zrotation Yrotation Xrotation
					JOINT Spine3_Neck
					{
						OFFSET 0.000000 0.000000 0.000000
						CHANNELS 3 Zrotation Yrotation Xrotation
						JOINT Neck
						{
							OFFSET -0.005205 0.217920 -0.024551
							CHANNELS 3 Zrotation Yrotation Xrotation
							End Site #name: Head
							{
								OFFSET 0.002365 0.091850 0.046637
							}
						}
					}
					JOINT Spine3_L_Collar
					{
						OFFSET 0.000000 0.000000 0.000000
						CHANNELS 3 Zrotation Yrotation Xrotation
						JOINT L_Collar
						{
							OFFSET 0.072225 0.116603 -0.009480
							CHANNELS 3 Zrotation Yrotation Xrotation
							JOINT L_Shoulder
							{
								OFFSET 0.115937 -0.058643 -0.021018
								CHANNELS 3 Zrotation Yrotation Xrotation
								JOINT L_Elbow
								{
									OFFSET 0.021994 -0.254722 -0.024492
									CHANNELS 3 Zrotation Yrotation Xrotation
									End Site #name: L_Wrist
									{
										OFFSET 0.048810 -0.240214 0.103329
									}
								}
							}
						}
					}
					JOINT Spine3_R_Collar
					{
						OFFSET 0.000000 0.000000 0.000000
						CHANNELS 3 Zrotation Yrotation Xrotation
						JOINT R_Collar
						{
							OFFSET -0.073372 0.120704 -0.024611
							CHANNELS 3 Zrotation Yrotation Xrotation
							JOINT R_Shoulder
							{
								OFFSET -0.108089 -0.054969 -0.020504
								CHANNELS 3 Zrotation Yrotation Xrotation
								JOINT R_Elbow
								{
									OFFSET -0.033684 -0.260739 0.009889
									CHANNELS 3 Zrotation Yrotation Xrotation
									End Site #name: R_Wrist
									{
										OFFSET -0.067980 -0.232763 0.118463
									}
								}
							}
						}
					}
				}
			}
		}
	}
}
MOTION
Frames: 9
Frame Time: 0.041667
-0.018826 0.888178 0.015767 -0.568952 -15.950698 -12.144860 0.000000 0.000000 0.000000 5.722087 -4.308067 -23.932760 12.347343 -5.986296 56.557050 -9.782206 -31.690770 0.912209 0.000000 0.000000 0.000000 -11.522313 0.580757 2.366470 -0.505445 7.315232 49.764355 5.834741 11.885663 4.099710 0.000000 0.000000 0.000000 8.569800 -2.236651 4.477717 0.299949 0.208492 5.585805 2.144144 2.110413 -5.265260 0.000000 0.000000 0.000000 -0.537460 0.574194 13.671739 0.000000 0.000000 0.000000 24.160570 -34.334983 -25.794513 -11.755452 -6.344643 -39.320228 26.702382 18.724166 -67.538547 0.000000 0.000000 0.000000 -43.092821 42.912739 -39.681326 8.312106 6.891978 -30.342742 -36.341300 -25.757095 -58.342656 
-0.024487 0.860726 0.049728 -0.555707 -15.365965 -18.085075 0.000000 0.000000 0.000000 4.394066 -3.488701 -17.471332 11.393329 -5.922069 60.365425 -0.708655 -26.015124 -9.940472 0.000000 0.000000 0.000000 -11.776298 0.244455 8.132508 -3.137267 10.274635 54.665677 7.798472 19.537300 3.641511 0.000000 0.000000 0.000000 8.410564 -1.844460 2.475090 1.956324 -0.084636 6.693277 3.223350 3.098376 -8.273435 0.000000 0.000000 0.000000 0.926307 -0.443449 18.732014 0.000000 0.000000 0.000000 34.811807 -38.025929 -33.242221 -6.625300 -7.283321 -51.790882 38.147184 29.874487 -56.190857 0.000000 0.000000 0.000000 -53.613162 44.694433 -48.194803 2.442688 6.896296 -41.444882 -47.479552 -33.897993 -43.686374 
-0.029910 0.819475 0.074803 -0.853001 -14.685503 -21.263643 0.000000 0.000000 0.000000 4.016084 -3.179228 -15.445967 10.741613 -6.298935 66.649466 5.530402 -20.021006 -17.509264 0.000000 0.000000 0.000000 -11.095632 -0.040126 11.083876 -4.893363 12.966520 59.865756 6.522101 23.294642 -0.033052 0.000000 0.000000 0.000000 7.638686 -1.596976 2.051245 3.136565 -0.410222 3.683805 5.051022 4.465571 -8.761481 0.000000 0.000000 0.000000 2.473399 -1.792230 23.074850 0.000000 0.000000 0.000000 41.536218 -38.882531 -36.933931 2.538933 -4.641275 -60.780592 46.182515 33.953858 -45.769471 0.000000 0.000000 0.000000 -62.066563 43.472351 -52.367091 -5.444250 4.188813 -48.840221 -55.074539 -35.949316 -30.989446 
-0.034906 0.776765 0.083425 -0.417593 -14.094100 -23.130390 0.000000 0.000000 0.000000 4.505369 -3.345827 -16.626349 10.864338 -7.363820 73.623898 9.814060 -21.050673 -24.250837 0.000000 0.000000 0.000000 -11.668678 -0.050552 12.777833 -5.840984 15.282505 64.911412 3.259011 26.846923 -6.618633 0.000000 0.000000 0.000000 6.556771 -1.468271 2.833914 3.700768 -0.538353 2.009793 5.309883 4.720499 -8.072572 0.000000 0.000000 0.000000 3.619608 -2.844763 25.125712 0.000000 0.000000 0.000000 46.522654 -37.377760 -37.320718 5.993259 -3.285065 -65.051085 49.441663 35.365245 -42.191910 0.000000 0.000000 0.000000 -66.878171 41.708977 -53.158464 -9.888486 2.111887 -52.794926 -59.544864 -36.889602 -24.713053 
-0.038679 0.744654 0.076465 -0.531320 -13.871448 -23.236836 0.000000 0.000000 0.000000 6.421931 -3.692028 -20.251425 8.800805 -6.399932 79.798814 11.875631 -19.097027 -26.885496 0.000000 0.000000 0.000000 -12.183668 0.014298 13.115698 -6.711445 16.901035 67.423508 -1.965062 31.226881 -16.249373 0.000000 0.000000 0.000000 6.003185 -1.556786 4.517130 4.020667 -0.594793 1.753334 5.569777 4.646755 -7.719669 0.000000 0.000000 0.000000 3.783321 -3.051554 26.295234 0.000000 0.000000 0.000000 48.253901 -37.424938 -38.246120 5.660823 -3.463532 -65.180359 50.987779 36.687873 -42.076009 0.000000 0.000000 0.000000 -68.143143 40.808193 -52.540854 -9.751892 2.219510 -53.803304 -59.814941 -37.262676 -25.118774 
-0.040599 0.734169 0.061274 -1.042754 -14.092782 -22.158663 0.000000 0.000000 0.000000 7.093934 -4.074851 -23.524352 8.913700 -6.731387 82.264190 11.709789 -17.934205 -26.308779 0.000000 0.000000 0.000000 -12.549447 0.134586 11.334495 -5.358096 16.191688 68.923267 -5.345759 31.201041 -21.640562 0.000000 0.000000 0.000000 6.525088 -1.925156 6.603744 4.241857 -0.624225 2.582353 5.467591 4.288339 -7.533936 0.000000 0.000000 0.000000 3.468780 -2.759536 26.337475 0.000000 0.000000 0.000000 45.624561 -37.688975 -37.379988 3.121907 -4.568365 -63.092276 48.864851 35.822642 -44.302297 0.000000 0.000000 0.000000 -65.746313 41.327165 -51.610599 -7.325334 3.506419 -52.870845 -56.861357 -36.133893 -27.722577 
-0.040829 0.747180 0.042607 -1.690509 -14.502823 -20.619816 0.000000 0.000000 0.000000 6.793819 -4.946791 -29.210428 10.918426 -9.019446 85.315525 4.428886 -23.779148 -16.409862 0.000000 0.000000 0.000000 -12.210919 0.206620 8.208504 -3.148269 14.242251 69.133207 -5.080846 29.225769 -20.799123 0.000000 0.000000 0.000000 6.512716 -2.251274 9.359778 5.139064 -0.770764 4.234241 5.941855 4.113100 -7.163508 0.000000 0.000000 0.000000 2.372801 -1.785455 24.672297 0.000000 0.000000 0.000000 42.371073 -37.520507 -35.704824 -2.418948 -6.745197 -59.256140 43.980458 33.691243 -50.134934 0.000000 0.000000 0.000000 -61.649323 41.730613 -49.305723 -2.254015 5.914763 -49.992058 -52.993616 -35.258105 -33.484242 
-0.037103 0.773026 0.024133 -1.792829 -15.043734 -17.729242 0.000000 0.000000 0.000000 6.812171 -6.114437 -38.488457 10.670268 -8.944722 87.510160 -8.872427 -26.291812 1.704361 0.000000 0.000000 0.000000 -12.341613 0.422877 4.580865 -1.715802 12.195819 66.184128 -4.426591 27.054944 -19.138856 0.000000 0.000000 0.000000 6.763748 -2.614033 11.852034 5.159772 -0.765134 5.462876 5.620405 3.472767 -5.658344 0.000000 0.000000 0.000000 1.459176 -0.932177 19.693034 0.000000 0.000000 0.000000 36.200050 -35.518824 -30.947128 -10.005566 -8.897301 -53.476084 34.747626 27.427359 -60.451782 0.000000 0.000000 0.000000 -54.328284 41.563347 -44.270231 4.091109 8.198145 -44.891387 -46.222102 -32.950037 -44.191441 
-0.028892 0.803547 0.012173 -1.256960 -16.572309 -13.887987 0.000000 0.000000 0.000000 5.987032 -6.659801 -42.956063 9.375352 -5.970185 80.101509 -9.627301 -28.311115 1.982921 0.000000 0.000000 0.000000 -12.491894 0.716840 0.809859 -0.841540 10.577605 61.341292 -4.553217 20.929810 -17.604631 0.000000 0.000000 0.000000 7.602548 -3.168243 14.824368 3.675454 -0.488484 4.563341 5.389762 2.689017 -3.561522 0.000000 0.000000 0.000000 -0.510229 0.502661 13.490961 0.000000 0.000000 0.000000 27.885414 -32.118350 -24.828497 -16.135507 -8.201046 -41.980966 25.922512 18.035788 -70.277920 0.000000 0.000000 0.000000 -45.496184 40.317108 -37.547053 10.760732 8.655266 -34.526656 -36.567233 -26.295210 -58.676154 
